<?xml version="1.0" encoding="UTF-8"?>
<svg version="1.1" viewBox="0 0 1210 227.93" width="1210" height="227.93" xmlns="http://www.w3.org/2000/svg">
 <g fill="#100f0d">
  <path d="m198.09 57.725c7.452-18.148 13.707-31.811 18.675-44.191l-48.569 0.08667-45.587 111.45c-4.968 12.38-11.921 23.04-20.861 31.981-10.623 10.471-21.819 15.704-33.587 15.704-10.316 0-15.475-6.2656-15.475-18.8 0-9.5507 4.1267-25.331 12.38-47.34 8.6347-21.167 16.2-39.412 22.696-54.735 6.4947-15.32 11.997-28.14 16.507-38.457l-45.224 0.28667c-3.6693 8.024-7.1027 15.247-9.7387 20.863-2.6373 5.616-4.796 10.375-6.4773 14.271-25.217 55.863-37.827 97.089-37.827 123.68 0 30.032 14.558 45.048 43.673 45.048 24.681 0 49.777-5.3812 74.232-25.556 22.008-18.569 37.833-44.94 48.532-69.699 10.317-24.912 19.201-46.441 26.651-64.592"/>
  <path d="m223.57 125.27 16.4 67.999c13.231-0.912 20.645-1.1281 34.912-1.7948l55.469-148.9h-38.281l-30.797 85.391-18.687-85.391h-23.153l-62.884 159.63c11.269-1.9536 24.232-3.6443 38.46-5.1109l28.561-71.818"/>
  <path d="m436.19 161.81-82.849 1.152 12.445-30.189 36.181-1.152 19.359-30.191-43.787 1.152 10.947-25.235h48.396l22.355-34.684-114.08-0.08267-13.368 34.881 20.511-0.11467-45.055 111.54c29.424-1.212 39.976 0.0172 120.76-0.47187l8.18-26.607"/>
  <path d="m996.6 169.39c-26.937-4.0123-52.728-4.5843-67.753-5.6749l14.828-29.575 51.723 2.3573 15.836-33.052-51.883-2.2493 13-24.311 62.915 0.692 15.516-34.997c-29.623 0-81.688-0.09867-114.83-0.09867l-16.4 35.137 14.965-0.27733-56.048 112.97c26.865 1.5041 76.871 4.2984 104.38 11.749l13.756-32.669"/>
  <path d="m603.5 71.418s5.224-0.252 6.5693-0.252c13.508 0 20.264 3.596 20.264 10.789 0 2.0467-0.41066 4.1227-1.2293 6.228-3.0413 8.364-10.119 15.497-21.228 21.403-9.416 5.264-19.181 8.5093-29.299 9.7373zm-56.06 115.73c5.32-12.322 11.185-23.644 13.945-29.583 10.488-0.71867 29.039 8.452 31.364 28.551 12.351-0.33653 27.724-0.68813 41.069-1.0095-3.3573-21.947-22.159-38.873-32.345-43.507 28.771-11.461 50.379-29.387 64.824-53.772 5.0293-8.3613 7.544-15.964 7.544-22.805 0-17.953-19.095-26.931-57.281-26.931-22.456 0-41.345 1.6667-72.349 7.0013l-10.82 32.601c12.232-2.6933 28.257-4.3093 33.171-4.7773l-56.076 114.64c1.5667 0 3.1267-9.4e-4 4.66-9.4e-4 9.6347 0 20.492-0.15733 32.295-0.4068"/>
  <path d="m751.87 77.607 75.481-0.42667 16.175-34.061-147.1-0.54267-17.107 34.881 37.22-0.23067-51 107.68c12.844-0.20267 25.881-0.33853 38.992-0.37867l47.335-106.92"/>
  <path d="m800.88 143.86 39.595 0.77467-19.705 43.163c11.705 0.35733 23.741 0.57187 35.776 1.2172l66.635-145.93h-37.507l-29.643 63.52-39.545-0.12667 27.043-63.365-38.372-0.11467-61.296 141.73c12.668 0.1864 25.277 0.49734 37.716 0.96667l19.304-41.844"/>
  <path d="m1158.6 107.36c-5.6733 15.804-19.025 35.075-35.161 46.959-20.957 15.435-41.211 20.217-67.384 19.008 4.1773-10.517 53.312-118.19 53.312-118.19 37.495-7.1667 60.912 19.691 49.233 52.228zm-77.443-95.661-90.148 209.49c84.037 7.2084 125.18-8.852 154.55-30.92 29.293-21.681 59.224-57.217 59.457-105.5 0.22-45.48-33.024-98.744-123.86-73.071"/>
  <path d="m474.71 133.98c-4.3507 0.056-12.624 0.21333-15.287 0.47466 7.544-12.336 23.075-42.715 26.877-48.797-1.088 4.9533-6.092 25.692-11.591 48.323zm7.7947-91.403c-21.929 33.451-42.283 65.945-59.095 92.816-12.771 20.411-24.173 39.078-32.031 52.735 12.713-0.1588 24.395 0.36827 36.631 0.28547l24.931-41.595c2.436-0.20133 20.871 7.6307 16.159 40.798 12.176-0.0359 16.389-0.0505 27.412-0.0541 5.7293-58.835 19.936-106.87 34.636-144.99h-48.643"/>
  <path d="m1124.6 218.37-0.077-3.4703 16.196-0.3672 0.077 3.4724-6.0373 0.13587 0.372 16.45-4.1213 0.0916-0.3707-16.448-6.0387 0.13587"/>
  <path d="m1143.4 214.47 5.1414-0.1156 5.7346 13.261 0.2294-4e-3 5.1293-13.508 5.1427-0.1156 0.4506 19.92-4.044 0.0907-0.2933-12.967-0.1653 4e-3 -4.812 12.985-2.7547 0.0624-5.396-12.803-0.164 4e-3 0.2947 13.015-4.044 0.0907-0.4494-19.92"/>
 </g>
</svg>
