<svg width="1" height="1" viewBox="0 0 31.236 31.236" xmlns="http://www.w3.org/2000/svg"><g transform="translate(-1736.9 -213.38) scale(.26458)" clip-path="url(#a)" stroke-linecap="round" stroke-linejoin="round"><g fill="#fff" stroke="#000" stroke-width="1.229"><path transform="matrix(1.3333 0 0 -1.3333 6625.1 898.54)" d="M0 0v21.345l-30.372 14.121V13.979z" clip-path="url(#b)"/><path transform="matrix(1.3333 0 0 -1.3333 6625.1 870.08)" d="m0 0 28.104 14.584V-6.883L0-21.345z" clip-path="url(#c)"/><path transform="matrix(1.3333 0 0 -1.3333 6584.6 851.25)" d="m0 0 28.281 14.463L58.476.462 30.372-14.121z" clip-path="url(#d)"/><path transform="matrix(1.3333 0 0 -1.3333 6634.1 854.1)" d="M0 0c0-1.618-3.045-2.921-6.795-2.921-3.752 0-6.787 1.303-6.787 2.921 0 1.609 3.035 2.92 6.787 2.92C-3.045 2.92 0 1.609 0 0" clip-path="url(#e)"/><path transform="matrix(1.3333 0 0 -1.3333 6634.1 854.1)" d="M0 0c0-1.618-3.045-2.921-6.795-2.921-3.752 0-6.787 1.303-6.787 2.921v-4.237c0-1.697 3.035-3.069 6.787-3.069C-3.045-7.306 0-5.934 0-4.237z" clip-path="url(#f)"/><path transform="matrix(1.3333 0 0 -1.3333 6653 845.01)" d="M0 0c0-1.618-3.045-2.921-6.795-2.921-3.752 0-6.787 1.303-6.787 2.921 0 1.609 3.035 2.92 6.787 2.92C-3.045 2.92 0 1.609 0 0" clip-path="url(#g)"/><path transform="matrix(1.3333 0 0 -1.3333 6653 845.01)" d="M0 0c0-1.618-3.045-2.921-6.795-2.921-3.752 0-6.787 1.303-6.787 2.921v-4.237c0-1.697 3.035-3.07 6.787-3.07C-3.045-7.307 0-5.934 0-4.237z" clip-path="url(#h)"/><path transform="matrix(1.3333 0 0 -1.3333 6632.3 836.31)" d="M0 0c0-1.618-3.045-2.921-6.795-2.921-3.752 0-6.785 1.303-6.785 2.921 0 1.609 3.033 2.92 6.785 2.92C-3.045 2.92 0 1.609 0 0" clip-path="url(#i)"/><path transform="matrix(1.3333 0 0 -1.3333 6632.3 836.31)" d="M0 0c0-1.618-3.045-2.921-6.795-2.921-3.752 0-6.785 1.303-6.785 2.921v-4.237c0-1.697 3.033-3.069 6.785-3.069C-3.045-7.306 0-5.934 0-4.237z" clip-path="url(#j)"/><path transform="matrix(1.3333 0 0 -1.3333 6612.8 845.14)" d="M0 0c0-1.618-3.045-2.921-6.795-2.921-3.752 0-6.785 1.303-6.785 2.921 0 1.609 3.033 2.92 6.785 2.92C-3.045 2.92 0 1.609 0 0" clip-path="url(#k)"/><path transform="matrix(1.3333 0 0 -1.3333 6612.8 845.14)" d="M0 0c0-1.618-3.045-2.921-6.795-2.921-3.752 0-6.785 1.303-6.785 2.921v-4.237c0-1.697 3.033-3.069 6.785-3.069C-3.045-7.306 0-5.934 0-4.237z" clip-path="url(#l)"/></g><path transform="matrix(1.3333 0 0 -1.3333 6675.8 865.52)" d="M0 0c0-21.617-17.524-39.142-39.142-39.142S-78.284-21.617-78.284 0s17.524 39.142 39.142 39.142S0 21.617 0 0z" clip-path="url(#m)" fill="none" stroke="#e3000b" stroke-width="10.259"/><path transform="matrix(1.3333 0 0 -1.3333 6586.9 828.4)" d="m0 0 55.351-55.351" clip-path="url(#n)" fill="none" stroke="#e3000b" stroke-width="10.259"/></g><defs><clipPath id="a"><path transform="matrix(1.3333 0 0 -1.3333 6509.6 1122.5)" d="M0 0h595.28v841.89H0z"/></clipPath><clipPath id="b"><path transform="translate(-86.602 -167.99)" d="M32.22 245.02h106.54v-97.544H32.22z"/></clipPath><clipPath id="c"><path transform="translate(-86.602 -189.33)" d="M32.22 245.02h106.54v-97.544H32.22z"/></clipPath><clipPath id="d"><path transform="translate(-56.23 -203.45)" d="M32.22 245.02h106.54v-97.544H32.22z"/></clipPath><clipPath id="e"><path transform="translate(-93.397 -201.32)" d="M41.22 148.48h88.543v88.544H41.22z"/></clipPath><clipPath id="f"><path transform="translate(-93.397 -201.32)" d="M41.22 148.48h88.543v88.544H41.22z"/></clipPath><clipPath id="g"><path transform="translate(-107.57 -208.13)" d="M41.22 148.48h88.543v88.544H41.22z"/></clipPath><clipPath id="h"><path transform="translate(-107.57 -208.13)" d="M41.22 148.48h88.543v88.544H41.22z"/></clipPath><clipPath id="i"><path transform="translate(-92.029 -214.66)" d="M41.22 148.48h88.543v88.544H41.22z"/></clipPath><clipPath id="j"><path transform="translate(-92.029 -214.66)" d="M41.22 148.48h88.543v88.544H41.22z"/></clipPath><clipPath id="k"><path transform="translate(-77.401 -208.04)" d="M41.22 148.48h88.543v88.544H41.22z"/></clipPath><clipPath id="l"><path transform="translate(-77.401 -208.04)" d="M41.22 148.48h88.543v88.544H41.22z"/></clipPath><clipPath id="m"><path transform="translate(-124.63 -192.75)" d="M41.22 148.48h88.543v88.544H41.22z"/></clipPath><clipPath id="n"><path transform="translate(-57.981 -220.59)" d="M41.22 148.48h88.543v88.544H41.22z"/></clipPath></defs></svg>
